<svg width="115" height="45" viewBox="0 0 115 45" fill="none" xmlns="http://www.w3.org/2000/svg">
<g id="levels">
<g id="celluler">
<path d="M29 17C28.4477 17 28 17.4477 28 18V31C28 31.5523 28.4477 32 29 32H30C30.5523 32 31 31.5523 31 31V18C31 17.4477 30.5523 17 30 17H29Z" fill="black"/>
<path d="M22 21C22 20.4477 22.4477 20 23 20H24C24.5523 20 25 20.4477 25 21V31C25 31.5523 24.5523 32 24 32H23C22.4477 32 22 31.5523 22 31V21Z" fill="black"/>
<path d="M18 23C17.4477 23 17 23.4477 17 24V31C17 31.5523 17.4477 32 18 32H19C19.5523 32 20 31.5523 20 31V24C20 23.4477 19.5523 23 19 23H18Z" fill="black"/>
<path d="M13 26C12.4477 26 12 26.4477 12 27V31C12 31.5523 12.4477 32 13 32H14C14.5523 32 15 31.5523 15 31V27C15 26.4477 14.5523 26 14 26H13Z" fill="black"/>
</g>
<g id="wifi">
<path d="M38.7071 24.3492C38.3166 23.9587 38.3141 23.3221 38.7346 22.964C40.905 21.1156 43.7187 20 46.7929 20C49.8671 20 52.6808 21.1156 54.8512 22.964C55.2716 23.3221 55.2692 23.9587 54.8787 24.3492L53.8333 25.3946C53.4428 25.7851 52.8128 25.7801 52.3814 25.4352C50.8494 24.2106 48.9067 23.4783 46.7929 23.4783C44.6791 23.4783 42.7363 24.2106 41.2044 25.4352C40.773 25.7801 40.143 25.7851 39.7524 25.3946L38.7071 24.3492Z" fill="black"/>
<path d="M51.712 27.5159C52.1025 27.1254 52.1059 26.4864 51.6697 26.1476C50.3228 25.1013 48.6306 24.4783 46.7929 24.4783C44.9552 24.4783 43.263 25.1013 41.916 26.1476C41.4799 26.4864 41.4832 27.1254 41.8738 27.5159L42.9191 28.5613C43.3096 28.9518 43.9387 28.9401 44.4057 28.6453C45.0967 28.2091 45.9153 27.9567 46.7929 27.9567C47.6704 27.9567 48.489 28.2091 49.18 28.6453C49.6471 28.9401 50.2761 28.9518 50.6667 28.5613L51.712 27.5159Z" fill="black"/>
<path d="M48.5637 30.6825C48.9455 30.2905 48.9454 29.6482 48.4658 29.3847C47.9695 29.1119 47.3993 28.9567 46.7929 28.9567C46.1865 28.9567 45.6163 29.1119 45.12 29.3847C44.6404 29.6482 44.6403 30.2905 45.0221 30.6825L46.0766 31.7648C46.4692 32.1677 47.1166 32.1677 47.5092 31.7648L48.5637 30.6825Z" fill="black"/>
</g>
<g id="battery">
<rect id="border" x="63.5" y="19.5" width="24" height="13" rx="2.5" fill="white" stroke="black"/>
<rect id="capacity" x="65" y="21" width="21" height="10" rx="3" fill="black"/>
<path id="cap" d="M89 28.8293C90.1652 28.4778 91 27.5294 91 26.4146C91 25.2999 90.1652 24.3515 89 24V28.8293Z" fill="#0C3C60"/>
</g>
</g>
</svg>
