<svg width="68" height="68" viewBox="0 0 68 68" fill="none" xmlns="http://www.w3.org/2000/svg">
<g id="Union">
<mask id="path-1-inside-1_735_720" fill="white">
<path fill-rule="evenodd" clip-rule="evenodd" d="M67.75 4.125C67.75 1.91586 65.9591 0.125 63.75 0.125H15.5C13.2909 0.125 11.5 1.91586 11.5 4.125V41.125C11.5 43.3341 9.70914 45.125 7.5 45.125H4.25C2.04086 45.125 0.25 46.9159 0.25 49.125V60.125C0.25 64.2671 3.60786 67.625 7.75 67.625H11.5H56.5H63.75C65.9591 67.625 67.75 65.8341 67.75 63.625V4.125Z"/>
</mask>
<path fill-rule="evenodd" clip-rule="evenodd" d="M67.75 4.125C67.75 1.91586 65.9591 0.125 63.75 0.125H15.5C13.2909 0.125 11.5 1.91586 11.5 4.125V41.125C11.5 43.3341 9.70914 45.125 7.5 45.125H4.25C2.04086 45.125 0.25 46.9159 0.25 49.125V60.125C0.25 64.2671 3.60786 67.625 7.75 67.625H11.5H56.5H63.75C65.9591 67.625 67.75 65.8341 67.75 63.625V4.125Z" fill="#AF8EFF"/>
<path d="M15.5 3.875H63.75V-3.625H15.5V3.875ZM15.25 41.125V4.125H7.75V41.125H15.25ZM4.25 48.875H7.5V41.375H4.25V48.875ZM4 60.125V49.125H-3.5V60.125H4ZM7.75 63.875C5.67893 63.875 4 62.1961 4 60.125H-3.5C-3.5 66.3382 1.5368 71.375 7.75 71.375V63.875ZM11.5 63.875H7.75V71.375H11.5V63.875ZM56.5 63.875H11.5V71.375H56.5V63.875ZM63.75 63.875H56.5V71.375H63.75V63.875ZM64 4.125V63.625H71.5V4.125H64ZM63.75 71.375C68.0302 71.375 71.5 67.9052 71.5 63.625H64C64 63.7631 63.8881 63.875 63.75 63.875V71.375ZM4.25 41.375C-0.0302062 41.375 -3.5 44.8448 -3.5 49.125H4C4 48.9869 4.11193 48.875 4.25 48.875V41.375ZM7.75 41.125C7.75 41.2631 7.63807 41.375 7.5 41.375V48.875C11.7802 48.875 15.25 45.4052 15.25 41.125H7.75ZM63.75 3.875C63.8881 3.875 64 3.98693 64 4.125H71.5C71.5 -0.155205 68.0302 -3.625 63.75 -3.625V3.875ZM15.5 -3.625C11.2198 -3.625 7.75 -0.155207 7.75 4.125H15.25C15.25 3.98693 15.3619 3.875 15.5 3.875V-3.625Z" fill="#AF8EFF" mask="url(#path-1-inside-1_735_720)"/>
</g>
</svg>
