<svg width="78" height="76" viewBox="0 0 78 76" fill="none" xmlns="http://www.w3.org/2000/svg">
<path id="new_releases" d="M32.2892 74.6745C28.8318 76.1489 24.817 74.8366 22.8981 71.6047L20.7808 68.0388C19.7242 66.2592 17.9792 64.9954 15.9589 64.5464L12.0882 63.6863C8.39585 62.8657 5.89231 59.4242 6.24852 55.6586L6.63339 51.5899C6.82752 49.5377 6.16845 47.4961 4.81105 45.9448L2.07144 42.8138C-0.402794 39.9861 -0.402797 35.7639 2.07144 32.9362L4.81105 29.8052C6.16844 28.2539 6.82752 26.2123 6.63339 24.1601L6.24852 20.0914C5.89231 16.3258 8.39585 12.8843 12.0882 12.0637L15.9589 11.2036C17.9792 10.7546 19.7242 9.49077 20.7808 7.71121L22.8981 4.14531C24.817 0.913451 28.8318 -0.398927 32.2892 1.07552L36.0579 2.68276C37.9374 3.48433 40.0626 3.48433 41.9421 2.68276L45.7108 1.07552C49.1682 -0.398927 53.183 0.913449 55.1019 4.14531L57.2192 7.71121C58.2758 9.49077 60.0208 10.7546 62.0411 11.2036L65.9118 12.0637C69.6041 12.8843 72.1077 16.3258 71.7515 20.0914L71.3666 24.1601C71.1725 26.2123 71.8316 28.2539 73.1889 29.8052L75.9286 32.9362C78.4028 35.7639 78.4028 39.9861 75.9286 42.8138L73.189 45.9448C71.8316 47.4961 71.1725 49.5377 71.3666 51.5899L71.7515 55.6586C72.1077 59.4242 69.6041 62.8657 65.9118 63.6863L62.0411 64.5464C60.0208 64.9954 58.2758 66.2592 57.2192 68.0388L55.1019 71.6047C53.183 74.8366 49.1682 76.1489 45.7108 74.6745L41.9421 73.0672C40.0626 72.2657 37.9374 72.2657 36.0579 73.0672L32.2892 74.6745ZM29.7592 45.8842C32.6881 48.8131 37.4369 48.8131 40.3658 45.8842L53.6246 32.6254C55.082 31.1681 55.1026 28.8116 53.671 27.3289C52.2035 25.809 49.7748 25.7877 48.2808 27.2817L39.0472 36.5153C36.839 38.7235 33.2653 38.7446 31.0312 36.5625L29.6401 35.2037C28.177 33.7746 25.8366 33.7884 24.3904 35.2346C22.9322 36.6928 22.9322 39.0572 24.3904 40.5154L29.7592 45.8842Z" fill="#82E9ED"/>
</svg>
